{
  "accessors": [
    {
      "bufferView": 2,
      "componentType": 5126,
      "count": 9883,
      "max": [
        9.362728118896484,
        17.539113998413086,
        18.39690399169922
      ],
      "min": [
        -13.007205963134766,
        -0.38563281297683716,
        -21.270254135131836
      ],
      "type": "VEC3"
    },
    {
      "bufferView": 2,
      "byteOffset": 118596,
      "componentType": 5126,
      "count": 9883,
      "max": [
        0.9998202323913574,
        0.9996362924575806,
        0.9999046325683594
      ],
      "min": [
        -0.9998167753219604,
        -0.9998949766159058,
        -0.9999719858169556
      ],
      "type": "VEC3"
    },
    {
      "bufferView": 1,
      "componentType": 5126,
      "count": 9883,
      "max": [
        0.9955599904060364,
        0.9935700297355652
      ],
      "min": [
        0.005609999876469374,
        0.01362001895904541
      ],
      "type": "VEC2"
    },
    {
      "bufferView": 0,
      "componentType": 5125,
      "count": 53979,
      "type": "SCALAR"
    }
  ],
  "asset": {
    "extras": {
      "author": "SDPM Esare (https://sketchfab.com/sdpm)",
      "license": "CC-BY-4.0 (http://creativecommons.org/licenses/by/4.0/)",
      "source": "https://sketchfab.com/3d-models/koi-fish-3e1b80c3653f43349252aab3b4fb1d86",
      "title": "Koi Fish"
    },
    "generator": "Sketchfab-12.67.0",
    "version": "2.0"
  },
  "bufferViews": [
    {
      "buffer": 0,
      "byteLength": 215916,
      "name": "floatBufferViews",
      "target": 34963
    },
    {
      "buffer": 0,
      "byteLength": 79064,
      "byteOffset": 215916,
      "byteStride": 8,
      "name": "floatBufferViews",
      "target": 34962
    },
    {
      "buffer": 0,
      "byteLength": 237192,
      "byteOffset": 294980,
      "byteStride": 12,
      "name": "floatBufferViews",
      "target": 34962
    }
  ],
  "buffers": [
    {
      "byteLength": 532172,
      "uri": "scene.bin"
    }
  ],
  "images": [
    {
      "uri": "textures/Material_0_baseColor.png"
    }
  ],
  "materials": [
    {
      "doubleSided": true,
      "name": "Material_0",
      "pbrMetallicRoughness": {
        "baseColorTexture": {
          "index": 0
        }
      }
    }
  ],
  "meshes": [
    {
      "name": "Object_0",
      "primitives": [
        {
          "attributes": {
            "NORMAL": 1,
            "POSITION": 0,
            "TEXCOORD_0": 2
          },
          "indices": 3,
          "material": 0,
          "mode": 4
        }
      ]
    }
  ],
  "nodes": [
    {
      "children": [
        1
      ],
      "matrix": [
        1.0,
        0.0,
        0.0,
        0.0,
        0.0,
        2.220446049250313e-16,
        -1.0,
        0.0,
        0.0,
        1.0,
        2.220446049250313e-16,
        0.0,
        0.0,
        0.0,
        0.0,
        1.0
      ],
      "name": "Sketchfab_model"
    },
    {
      "children": [
        2
      ],
      "name": "root"
    },
    {
      "children": [
        3
      ],
      "matrix": [
        1.0,
        0.0,
        0.0,
        0.0,
        0.0,
        2.220446049250313e-16,
        1.0,
        0.0,
        0.0,
        -1.0,
        2.220446049250313e-16,
        0.0,
        0.0,
        0.0,
        0.0,
        1.0
      ],
      "name": "GLTF_SceneRootNode"
    },
    {
      "children": [
        4
      ],
      "matrix": [
        0.0022447059855092823,
        0.0,
        0.022777531007907643,
        0.0,
        -0.0,
        0.02288786508142948,
        0.0,
        0.0,
        -0.022777531007907643,
        -0.0,
        0.0022447059855092823,
        0.0,
        -0.0286334827542305,
        -0.19630330801010132,
        0.4986802637577057,
        1.0
      ],
      "name": "node_id39_0"
    },
    {
      "mesh": 0,
      "name": "Object_4"
    }
  ],
  "samplers": [
    {
      "magFilter": 9729,
      "minFilter": 9987,
      "wrapS": 10497,
      "wrapT": 10497
    }
  ],
  "scene": 0,
  "scenes": [
    {
      "name": "Sketchfab_Scene",
      "nodes": [
        0
      ]
    }
  ],
  "textures": [
    {
      "sampler": 0,
      "source": 0
    }
  ]
}
